<svg xmlns="http://www.w3.org/2000/svg" width="184.513" height="46.564" viewBox="0 0 184.513 46.564">
  <g id="logo" transform="translate(-113.69 -142.298)">
    <g id="Group_1" data-name="Group 1" transform="translate(113.692 142.302)">
      <path id="Path_1" data-name="Path 1" d="M2439.74,1305.2h-3.4a5.848,5.848,0,0,1-5.848-5.847v-26.138c-7.215-1.647-14.359-5.466-16.185-11.892a2.111,2.111,0,0,1,2.03-2.687h0a2.115,2.115,0,0,1,2.034,1.557c1.228,4.422,6.474,7.117,12.121,8.66v-7.118a3.024,3.024,0,0,1,3.024-3.024h23.24a2.113,2.113,0,0,1,2.113,2.113h0c0,7.627-12.527,12.981-19.207,12.981h-4.34q-.3,0-.6-.011v23.858a3.321,3.321,0,0,0,3.322,3.321h0a3.32,3.32,0,0,0,3.32-3.321v-19.924a2.114,2.114,0,0,1,2.113-2.113h0a2.113,2.113,0,0,1,2.113,2.113v21.623a5.847,5.847,0,0,1-5.85,5.849Zm-5.02-35.635q.309.014.6.014h4.34c4,0,10.584-2.516,13.474-5.617a.61.61,0,0,0-.45-1.024h-16.526a1.441,1.441,0,0,0-1.441,1.441Z" transform="translate(-2414.229 -1258.64)" fill="#fff"/>
    </g>
    <text id="Trivia_Earn" data-name="Trivia Earn" transform="translate(171.203 174.237)" fill="#fff" font-size="21" font-family="SegoeUI-Bold, Segoe UI" font-weight="700"><tspan x="0" y="0">TRIVIA </tspan><tspan y="0" font-family="SegoeUI, Segoe UI" font-weight="400">EARN</tspan></text>
  </g>
</svg>
