<svg xmlns="http://www.w3.org/2000/svg" width="40" height="40" viewBox="0 0 40 40">
  <g id="leaderboard" transform="translate(-116 -6)">
    <g id="menu_ic" transform="translate(104)">
      <rect id="Rectangle_9199" data-name="Rectangle 9199" width="40" height="40" rx="13" transform="translate(12 6)" fill="#fff"/>
    </g>
    <g id="Group_16829" data-name="Group 16829" transform="translate(109.999 2.001)">
      <path id="Path_47626" data-name="Path 47626" d="M236.7,229.934c.063-.212-.515-.277-1.1-.244-.586-.033-1.164.031-1.1.244.743,2.508-1.448,6.4-1.448,6.4h5.1S235.958,232.442,236.7,229.934Z" transform="translate(-209.521 -205.705)" fill="#f9c809"/>
      <path id="Path_47627" data-name="Path 47627" d="M249.767,236.339a14.178,14.178,0,0,1-1.564-4.584l.026-.015H248.2a4.684,4.684,0,0,1,.118-1.8c.063-.212-.515-.277-1.1-.244-.586-.033-1.164.031-1.1.244a3.513,3.513,0,0,1,.093.411,4.315,4.315,0,0,1,.6,0c.586-.033,1.164.031,1.1.244a4.088,4.088,0,0,0-.153,1.152h-.334a1.561,1.561,0,0,1-.181,0,1.561,1.561,0,0,0-.181,0,1.723,1.723,0,0,1-.176,0c-.089,0-.551-.327-.617-.2a1,1,0,0,0-.031.215,2.4,2.4,0,0,0,1.546.227,11.722,11.722,0,0,0,1.244,4.344Z" transform="translate(-221.139 -205.705)" fill="#f9c809" opacity="0.6"/>
      <g id="Group_16823" data-name="Group 16823">
        <g id="Group_16816" data-name="Group 16816">
          <g id="Group_16815" data-name="Group 16815">
            <g id="Group_16814" data-name="Group 16814">
              <path id="Path_47628" data-name="Path 47628" d="M186.412,155.289h-2.958l.428-.471c.343,1.814.506,7.249,3.254,6.391a.38.38,0,1,1,.236.718c-3.259,1.017-3.923-4.679-4.345-6.911a.4.4,0,0,1,.428-.471h2.958a.376.376,0,1,1,0,.744Z" transform="translate(-165.019 -138.871)" fill="#f9c809"/>
            </g>
          </g>
        </g>
        <g id="Group_16819" data-name="Group 16819">
          <g id="Group_16818" data-name="Group 16818">
            <g id="Group_16817" data-name="Group 16817">
              <path id="Path_47629" data-name="Path 47629" d="M288.129,155.289h2.958l-.428-.471c-.343,1.814-.506,7.249-3.254,6.391a.38.38,0,1,0-.236.718c3.259,1.017,3.923-4.679,4.345-6.911a.4.4,0,0,0-.428-.471h-2.958a.376.376,0,1,0,0,.744Z" transform="translate(-257.391 -138.871)" fill="#f9c809"/>
            </g>
          </g>
        </g>
        <g id="Group_16822" data-name="Group 16822" opacity="0.6">
          <g id="Group_16821" data-name="Group 16821">
            <g id="Group_16820" data-name="Group 16820">
              <path id="Path_47630" data-name="Path 47630" d="M288.129,155.289h2.958l-.428-.471c-.343,1.814-.506,7.249-3.254,6.391a.38.38,0,1,0-.236.718c3.259,1.017,3.923-4.679,4.345-6.911a.4.4,0,0,0-.428-.471h-2.958a.376.376,0,1,0,0,.744Z" transform="translate(-257.391 -138.871)" fill="#f9c809"/>
            </g>
          </g>
        </g>
      </g>
      <path id="Path_47631" data-name="Path 47631" d="M216.419,139.4H205.793c-1.4,4.006,1.557,11.66,5.308,12.179h.011C214.863,151.061,217.824,143.407,216.419,139.4Z" transform="translate(-184.96 -125.401)" fill="#f9c809"/>
      <path id="Path_47632" data-name="Path 47632" d="M218.515,139.4H207.888c-.035.1-.066.2-.1.3h9.434c1.269,3.619-1.025,10.213-4.245,11.837.071.015.143.029.215.039h.011c3.755-.515,6.716-8.169,5.312-12.176Z" transform="translate(-187.055 -125.401)" fill="#f9c809" opacity="0.6"/>
      <path id="Path_47633" data-name="Path 47633" d="M238.939,277.03a.25.25,0,0,1-.25.25h-4.375a.25.25,0,0,1,0-.5h4.375A.25.25,0,0,1,238.939,277.03Z" transform="translate(-210.423 -247.598)" fill="#f9c809"/>
      <path id="Path_47634" data-name="Path 47634" d="M238.969,276.986a.249.249,0,0,0-.245-.206h-4.375a.249.249,0,0,0-.245.206Z" transform="translate(-210.457 -247.598)" fill="#f9c809" opacity="0.6"/>
      <path id="Path_47635" data-name="Path 47635" d="M234.773,279.483a.31.31,0,0,1-.31.31h-5.436a.31.31,0,1,1,0-.62h5.436a.31.31,0,0,1,.31.31Z" transform="translate(-205.667 -249.726)" fill="#f9c809"/>
      <path id="Path_47636" data-name="Path 47636" d="M234.8,279.44a.309.309,0,0,0-.306-.267h-5.436a.31.31,0,0,0-.306.267Z" transform="translate(-205.701 -249.726)" fill="#f9c809" opacity="0.6"/>
      <path id="Path_47637" data-name="Path 47637" d="M227.52,285.914v-2.228a.334.334,0,0,0-.335-.334H219.74a.334.334,0,0,0-.335.334v2.228Z" transform="translate(-197.384 -253.444)" fill="#453c3f"/>
      <path id="Rectangle_6634" data-name="Rectangle 6634" d="M0,0H4.451V1.262H0Z" transform="translate(23.853 30.677)" fill="#efe1b3"/>
      <path id="Rectangle_6635" data-name="Rectangle 6635" d="M0,0H1.916V.576H0Z" transform="translate(25.101 30.822)" fill="#453c3f"/>
      <path id="Rectangle_6636" data-name="Rectangle 6636" d="M0,0H3.81V.183H0Z" transform="translate(24.154 31.568)" fill="#453c3f"/>
      <path id="Rectangle_6637" data-name="Rectangle 6637" d="M0,0H10.124V1.221H0Z" transform="translate(21.017 31.919)" fill="#231e20"/>
      <path id="Path_47638" data-name="Path 47638" d="M273.048,149.908s.063,1.2.337,1.4,1.438-.111,1.438-.111-1.163.4-1.268.719.59,1.367.59,1.367-.764-.995-1.1-.995-1.091.995-1.091.995.67-1.024.565-1.346-1.243-.74-1.243-.74,1.155.294,1.429.094.343-1.383.343-1.383Z" transform="translate(-243.52 -134.747)" fill="#fff"/>
      <path id="Path_47639" data-name="Path 47639" d="M220.719,162.642c-.1-.16-.191-.356-.3-.561l-.168-.321c-.058-.111-.1-.234-.156-.355l-.159-.376c-.026-.064-.056-.128-.08-.2l-.069-.2-.14-.416c-.023-.07-.049-.14-.069-.212l-.057-.218c-.075-.292-.158-.586-.207-.888l-.085-.448-.057-.449c-.046-.295-.054-.59-.078-.872-.012-.141-.008-.281-.013-.417a3.558,3.558,0,0,1,0-.4c.007-.259.01-.5.031-.726s.038-.428.057-.607.046-.334.068-.459l.03-.166.024-.112.008-.036h-1.353l-.008.185c-.005.147-.007.323,0,.525s.009.427.028.672.044.509.074.787c.012.139.041.281.062.426s.042.293.074.442c.065.3.118.606.208.912l.125.463.153.458c.094.307.223.6.342.894l.089.217c.031.072.068.14.1.21l.2.408.1.2c.034.065.074.126.11.188l.215.361c.072.116.133.233.207.338l.214.3c.14.192.256.374.38.521l.321.38.278.329-.231-.364Z" transform="translate(-196.071 -138.569)" fill="#fff"/>
      <g id="Group_16828" data-name="Group 16828" opacity="0.4">
        <path id="Path_47640" data-name="Path 47640" d="M235.522,236.341v-6.652c-.558-.023-1.084.044-1.024.247.743,2.508-1.448,6.4-1.448,6.4Z" transform="translate(-209.521 -205.707)" fill="#f9c809"/>
        <path id="Path_47641" data-name="Path 47641" d="M246.8,230.343c.114-.006.227-.009.336-.008v-.646c-.558-.023-1.084.044-1.024.247a3.512,3.512,0,0,1,.093.411,4.326,4.326,0,0,1,.6,0Z" transform="translate(-221.139 -205.707)" fill="#f9c809" opacity="0.6"/>
        <path id="Path_47642" data-name="Path 47642" d="M248.106,246.57h-.084a1.723,1.723,0,0,1-.176,0c-.089,0-.551-.327-.617-.2a1,1,0,0,0-.031.215,2.214,2.214,0,0,0,.908.256Z" transform="translate(-222.105 -220.526)" fill="#f9c809" opacity="0.6"/>
        <g id="Group_16827" data-name="Group 16827">
          <g id="Group_16826" data-name="Group 16826">
            <g id="Group_16825" data-name="Group 16825">
              <g id="Group_16824" data-name="Group 16824">
                <path id="Path_47643" data-name="Path 47643" d="M186.412,155.289h-2.958l.428-.471c.343,1.814.506,7.249,3.254,6.391a.38.38,0,1,1,.236.718c-3.259,1.017-3.923-4.679-4.345-6.911a.4.4,0,0,1,.428-.471h2.958a.376.376,0,1,1,0,.744Z" transform="translate(-165.019 -138.871)" fill="#f9c809"/>
              </g>
            </g>
          </g>
        </g>
        <path id="Path_47644" data-name="Path 47644" d="M210.961,139.4h-5.168c-1.387,3.956,1.484,11.468,5.168,12.155Z" transform="translate(-184.96 -125.401)" fill="#f9c809"/>
        <path id="Path_47645" data-name="Path 47645" d="M213.056,139.4h-5.168c-.035.1-.066.2-.1.3h5.263Z" transform="translate(-187.055 -125.401)" fill="#f9c809" opacity="0.6"/>
        <path id="Path_47646" data-name="Path 47646" d="M236.424,276.78h-2.11a.25.25,0,0,0,0,.5h2.11Z" transform="translate(-210.423 -247.598)" fill="#f9c809"/>
        <path id="Path_47647" data-name="Path 47647" d="M236.458,276.78h-2.11a.249.249,0,0,0-.245.206h2.355Z" transform="translate(-210.457 -247.598)" fill="#f9c809" opacity="0.6"/>
        <path id="Path_47648" data-name="Path 47648" d="M231.668,279.173h-2.64a.31.31,0,1,0,0,.62h2.64Z" transform="translate(-205.667 -249.726)" fill="#f9c809"/>
        <path id="Path_47649" data-name="Path 47649" d="M231.7,279.173h-2.64a.31.31,0,0,0-.306.267H231.7Z" transform="translate(-205.701 -249.726)" fill="#f9c809" opacity="0.6"/>
        <path id="Path_47650" data-name="Path 47650" d="M223.385,283.352H219.74a.334.334,0,0,0-.335.334v2.227h3.98Z" transform="translate(-197.384 -253.444)" fill="#453c3f"/>
        <path id="Rectangle_6638" data-name="Rectangle 6638" d="M0,0H2.148V1.262H0Z" transform="translate(23.853 30.677)" fill="#efe1b3"/>
        <path id="Rectangle_6639" data-name="Rectangle 6639" d="M0,0H.9V.576H0Z" transform="translate(25.101 30.822)" fill="#453c3f"/>
        <path id="Rectangle_6640" data-name="Rectangle 6640" d="M0,0H1.847V.183H0Z" transform="translate(24.154 31.568)" fill="#453c3f"/>
        <path id="Rectangle_6641" data-name="Rectangle 6641" d="M0,0H4.984V1.221H0Z" transform="translate(21.017 31.919)" fill="#231e20"/>
        <path id="Path_47651" data-name="Path 47651" d="M220.719,162.642c-.1-.16-.191-.356-.3-.561l-.168-.321c-.058-.111-.1-.234-.156-.355l-.159-.376c-.026-.064-.056-.128-.08-.2l-.069-.2-.14-.416c-.023-.07-.049-.14-.069-.212l-.057-.218c-.075-.292-.158-.586-.207-.888l-.085-.448-.057-.449c-.046-.295-.054-.59-.078-.872-.012-.141-.008-.281-.013-.417a3.558,3.558,0,0,1,0-.4c.007-.259.01-.5.031-.726s.038-.428.057-.607.046-.334.068-.459l.03-.166.024-.112.008-.036h-1.353l-.008.185c-.005.147-.007.323,0,.525s.009.427.028.672.044.509.074.787c.012.139.041.281.062.426s.042.293.074.442c.065.3.118.606.208.912l.125.463.153.458c.094.307.223.6.342.894l.089.217c.031.072.068.14.1.21l.2.408.1.2c.034.065.074.126.11.188l.215.361c.072.116.133.233.207.338l.214.3c.14.192.256.374.38.521l.321.38.278.329-.231-.364Z" transform="translate(-196.071 -138.569)" fill="#fff"/>
      </g>
      <path id="Path_47652" data-name="Path 47652" d="M229.435,272.088s.04.757.213.882.906-.07.906-.07-.733.25-.8.453.372.861.372.861-.482-.627-.7-.627-.687.627-.687.627.422-.645.356-.848-.783-.466-.783-.466.728.185.9.06.223-.872.223-.872Z" transform="translate(-205.311 -243.424)" fill="#fff"/>
    </g>
  </g>
</svg>
