<svg xmlns="http://www.w3.org/2000/svg" width="40" height="40" viewBox="0 0 40 40">
  <g id="wallet_ic_h" transform="translate(-12 -6)">
    <rect id="Rectangle_9199" data-name="Rectangle 9199" width="40" height="40" rx="13" transform="translate(12 6)" fill="#fff"/>
    <g id="wallet_grey" transform="translate(23 17)">
      <path id="Path_99156" data-name="Path 99156" d="M317.074,716.724v11.643a1.623,1.623,0,0,0,1.619,1.619h15.366a1.622,1.622,0,0,0,1.619-1.619v-3.255h-4.347a2.566,2.566,0,0,1,0-5.132h4.347v-3.256a1.624,1.624,0,0,0-1.619-1.619H318.693a1.625,1.625,0,0,0-1.619,1.619Z" transform="translate(-317.074 -711.629)" fill="#319bd9" fill-rule="evenodd"/>
      <path id="Path_99157" data-name="Path 99157" d="M498.378,531.26h12.055l-.808-3.014Z" transform="translate(-495.005 -528.246)" fill="#319bd9" fill-rule="evenodd"/>
      <path id="Path_99158" data-name="Path 99158" d="M976.911,1002.03h-4.347a2.1,2.1,0,1,0,0,4.207h4.347Zm-3.3,1.366a1.043,1.043,0,1,1-.737-.305,1.043,1.043,0,0,1,.737.305Z" transform="translate(-958.307 -993.216)" fill="#319bd9" fill-rule="evenodd"/>
    </g>
  </g>
</svg>
